<svg width="26" height="24" viewBox="0 0 26 24" fill="none" xmlns="http://www.w3.org/2000/svg">
<g id="apple">
<path id="bg" d="M23.8748 12C23.8748 17.796 19.0082 22.5 12.9998 22.5C6.99132 22.5 2.12476 17.796 2.12476 12C2.12476 6.19875 6.99132 1.5 12.9998 1.5C19.0082 1.5 23.8748 6.19875 23.8748 12Z" fill="#283544"/>
<path id="apple_2" d="M18.0971 9.34304C18.0378 9.37646 16.6251 10.0819 16.6251 11.6459C16.6917 13.4296 18.4078 14.0551 18.4373 14.0551C18.4078 14.0885 18.1782 14.9072 17.4979 15.7654C16.958 16.5047 16.3587 17.25 15.4488 17.25C14.5832 17.25 14.2725 16.7573 13.2738 16.7573C12.2012 16.7573 11.8978 17.25 11.0766 17.25C10.1666 17.25 9.52301 16.4647 8.95369 15.7324C8.21405 14.7739 7.58539 13.2698 7.56319 11.8256C7.54824 11.0603 7.71131 10.308 8.12528 9.66904C8.70956 8.77699 9.75267 8.17143 10.8918 8.15146C11.7646 8.12498 12.5414 8.6906 13.074 8.6906C13.5845 8.6906 14.5388 8.15146 15.6186 8.15146C16.0847 8.1519 17.3276 8.27822 18.0971 9.34304ZM13.0002 7.99866C12.8449 7.29978 13.2738 6.60089 13.6733 6.15508C14.1837 5.61594 14.99 5.25 15.6852 5.25C15.7296 5.94889 15.4483 6.63432 14.9456 7.13352C14.4945 7.67266 13.7177 8.07853 13.0002 7.99866Z" fill="white"/>
</g>
</svg>
