<svg width="25" height="24" viewBox="0 0 25 24" fill="none" xmlns="http://www.w3.org/2000/svg">
<g id="google">
<path id="vector" d="M23.0726 12.2331C23.0726 11.3698 23.0011 10.7398 22.8464 10.0864H12.7869V13.983H18.6916C18.5726 14.9514 17.9297 16.4097 16.5011 17.3897L16.4811 17.5202L19.6617 19.9349L19.8821 19.9564C21.9059 18.1247 23.0726 15.4297 23.0726 12.2331Z" fill="#4285F4"/>
<path id="vector_2" d="M12.7863 22.5001C15.6791 22.5001 18.1076 21.5667 19.8815 19.9567L16.5005 17.39C15.5958 18.0083 14.3815 18.44 12.7863 18.44C9.95296 18.44 7.54822 16.6083 6.691 14.0767L6.56535 14.0871L3.25809 16.5955L3.21484 16.7133C4.97672 20.1433 8.59576 22.5001 12.7863 22.5001Z" fill="#34A853"/>
<path id="vector_3" d="M6.69151 14.0765C6.46532 13.4232 6.33442 12.7231 6.33442 11.9998C6.33442 11.2764 6.46532 10.5765 6.67961 9.92313L6.67361 9.78398L3.3249 7.23535L3.21534 7.28642C2.48918 8.70978 2.07251 10.3081 2.07251 11.9998C2.07251 13.6915 2.48918 15.2897 3.21534 16.7131L6.69151 14.0765Z" fill="#FBBC05"/>
<path id="vector_4" d="M12.7863 5.55997C14.7982 5.55997 16.1553 6.41163 16.9292 7.12335L19.953 4.23C18.0959 2.53834 15.6791 1.5 12.7863 1.5C8.5958 1.5 4.97673 3.85665 3.21484 7.28662L6.67912 9.92332C7.54825 7.39166 9.953 5.55997 12.7863 5.55997Z" fill="#EB4335"/>
</g>
</svg>
