<svg width="130" height="54" viewBox="0 0 130 54" fill="none" xmlns="http://www.w3.org/2000/svg">
<path d="M6.486 52.292C5.534 52.292 4.722 52.166 4.05 51.914C2.986 51.522 2.216 51.06 1.74 50.528C1.236 50.024 0.984 49.478 0.984 48.89C0.984 48.134 1.362 47.336 2.118 46.496C2.846 45.684 3.868 44.886 5.184 44.102C6.5 43.346 8.012 42.674 9.72 42.086C11.428 41.526 13.248 41.106 15.18 40.826C16.048 40.686 17 40.574 18.036 40.49C19.1 40.406 20.164 40.322 21.228 40.238C22.32 40.182 23.3 40.154 24.168 40.154C25.204 38.39 26.044 36.724 26.688 35.156C27.36 33.588 27.948 31.782 28.452 29.738L28.62 29.066C28.088 29.57 27.332 30.186 26.352 30.914C25.4 31.614 24.28 32.328 22.992 33.056C21.732 33.756 20.374 34.344 18.918 34.82C17.49 35.296 16.02 35.534 14.508 35.534C13.332 35.534 12.198 35.352 11.106 34.988C9.93 34.568 8.866 33.868 7.914 32.888C6.99 31.88 6.248 30.648 5.688 29.192C5.156 27.708 4.89 26.07 4.89 24.278C4.89 22.962 5.058 21.562 5.394 20.078C5.73 18.566 6.276 17.026 7.032 15.458C6.164 14.562 5.478 13.568 4.974 12.476C4.498 11.384 4.26 10.264 4.26 9.116C4.26 8.108 4.47 7.114 4.89 6.134C5.31 5.126 5.968 4.16 6.864 3.236C7.116 2.956 7.354 2.816 7.578 2.816C7.69 2.816 7.746 2.872 7.746 2.984C7.746 3.152 7.648 3.348 7.452 3.572C6.808 4.356 6.332 5.182 6.024 6.05C5.716 6.918 5.562 7.786 5.562 8.654C5.562 9.634 5.744 10.6 6.108 11.552C6.5 12.504 7.046 13.386 7.746 14.198C7.886 13.918 8.026 13.638 8.166 13.358C8.334 13.078 8.502 12.798 8.67 12.518C10.014 10.334 11.652 8.458 13.584 6.89C15.544 5.322 17.63 4.118 19.842 3.278C22.054 2.41 24.21 1.976 26.31 1.976C26.674 1.976 27.024 1.99 27.36 2.018C27.724 2.046 28.088 2.088 28.452 2.144C31.168 2.564 33.198 3.474 34.542 4.874C35.886 6.274 36.558 7.842 36.558 9.578C36.558 10.782 36.222 11.986 35.55 13.19C34.906 14.394 33.912 15.5 32.568 16.508C31.252 17.516 29.6 18.328 27.612 18.944C25.652 19.56 23.37 19.896 20.766 19.952C18.722 19.98 16.706 19.728 14.718 19.196C12.73 18.636 11.05 17.908 9.678 17.012C8.978 18.496 8.46 19.952 8.124 21.38C7.816 22.78 7.662 24.096 7.662 25.328C7.662 27.4 8.096 29.178 8.964 30.662C9.832 32.146 11.036 33.14 12.576 33.644C13.024 33.784 13.472 33.882 13.92 33.938C14.396 33.994 14.858 34.022 15.306 34.022C16.566 34.022 17.826 33.84 19.086 33.476C20.374 33.084 21.564 32.58 22.656 31.964C23.748 31.348 24.672 30.704 25.428 30.032C26.212 29.332 26.73 28.688 26.982 28.1C27.626 26.644 28.256 25.636 28.872 25.076C29.516 24.488 30.09 24.194 30.594 24.194C31.014 24.194 31.364 24.39 31.644 24.782C31.952 25.146 32.064 25.65 31.98 26.294C31.7 28.618 31.056 30.872 30.048 33.056C29.068 35.24 27.794 37.606 26.226 40.154C28.13 40.182 29.838 40.28 31.35 40.448C32.89 40.644 34.276 40.896 35.508 41.204C35.844 41.288 36.068 41.386 36.18 41.498C36.32 41.638 36.39 41.75 36.39 41.834C36.39 42.03 36.222 42.128 35.886 42.128C35.718 42.128 35.48 42.086 35.172 42.002C34.528 41.834 33.674 41.68 32.61 41.54C31.546 41.428 30.398 41.344 29.166 41.288C27.962 41.232 26.8 41.204 25.68 41.204C24.504 42.884 23.104 44.396 21.48 45.74C19.884 47.112 18.19 48.288 16.398 49.268C14.606 50.248 12.842 50.99 11.106 51.494C9.398 52.026 7.858 52.292 6.486 52.292ZM19.632 18.692C19.94 18.692 20.248 18.692 20.556 18.692C20.864 18.664 21.172 18.636 21.48 18.608C24.308 18.328 26.702 17.684 28.662 16.676C30.65 15.64 32.148 14.422 33.156 13.022C34.192 11.622 34.71 10.25 34.71 8.906C34.71 7.59 34.206 6.428 33.198 5.42C32.218 4.384 30.706 3.712 28.662 3.404C28.382 3.348 28.144 3.32 27.948 3.32C27.78 3.32 27.542 3.32 27.234 3.32C25.414 3.32 23.524 3.754 21.564 4.622C19.632 5.49 17.784 6.708 16.02 8.276C14.284 9.816 12.786 11.608 11.526 13.652C11.218 14.184 10.98 14.59 10.812 14.87C10.644 15.15 10.448 15.486 10.224 15.878C11.372 16.746 12.758 17.432 14.382 17.936C16.034 18.44 17.784 18.692 19.632 18.692ZM6.444 50.99C7.536 50.99 8.824 50.78 10.308 50.36C11.792 49.968 13.332 49.352 14.928 48.512C16.552 47.7 18.106 46.692 19.59 45.488C21.074 44.284 22.376 42.884 23.496 41.288C22.152 41.316 20.822 41.372 19.506 41.456C18.218 41.568 16.93 41.736 15.642 41.96C14.27 42.184 12.842 42.562 11.358 43.094C9.902 43.654 8.544 44.298 7.284 45.026C6.052 45.754 5.044 46.482 4.26 47.21C3.504 47.966 3.126 48.652 3.126 49.268C3.126 49.632 3.28 49.954 3.588 50.234C3.924 50.514 4.442 50.724 5.142 50.864C5.534 50.948 5.968 50.99 6.444 50.99ZM36.8582 36.5C35.7942 36.5 35.0102 36.15 34.5062 35.45C34.0022 34.722 33.7502 33.84 33.7502 32.804C33.7502 31.544 34.0442 30.228 34.6322 28.856C35.1922 27.568 35.9062 26.392 36.7742 25.328C37.6422 24.264 38.5802 23.41 39.5882 22.766C40.5962 22.094 41.5762 21.758 42.5282 21.758C43.5922 21.758 44.3762 22.108 44.8802 22.808C45.3842 23.508 45.6362 24.39 45.6362 25.454C45.6362 26.742 45.3422 28.058 44.7542 29.402C44.4182 30.158 43.9422 30.998 43.3262 31.922C42.7102 32.818 42.0102 33.644 41.2262 34.4C41.3942 34.708 41.6322 34.974 41.9402 35.198C42.2482 35.394 42.6682 35.492 43.2002 35.492C43.8722 35.492 44.5022 35.212 45.0902 34.652C45.7062 34.092 46.2662 33.42 46.7702 32.636C47.2742 31.824 47.7222 31.012 48.1142 30.2C48.5062 29.388 48.8282 28.73 49.0802 28.226C49.1642 28.058 49.3042 27.974 49.5002 27.974C49.6122 27.974 49.6962 28.03 49.7522 28.142C49.8082 28.226 49.7942 28.366 49.7102 28.562C49.5422 28.982 49.2622 29.612 48.8702 30.452C48.4782 31.264 48.0022 32.118 47.4422 33.014C46.8822 33.882 46.2382 34.624 45.5102 35.24C44.7822 35.856 43.9702 36.164 43.0742 36.164C42.4582 36.164 41.9262 36.066 41.4782 35.87C41.0302 35.646 40.6662 35.38 40.3862 35.072C39.7982 35.52 39.2102 35.87 38.6222 36.122C38.0342 36.374 37.4462 36.5 36.8582 36.5ZM37.4882 35.576C38.2442 35.576 39.0562 35.212 39.9242 34.484C39.7002 34.148 39.5322 33.798 39.4202 33.434C39.3082 33.07 39.2522 32.734 39.2522 32.426C39.2522 31.922 39.3642 31.488 39.5882 31.124C39.8402 30.76 40.2182 30.578 40.7222 30.578C41.0862 30.578 41.3802 30.718 41.6042 30.998C41.8562 31.25 41.9822 31.544 41.9822 31.88C41.9822 31.964 41.9682 32.048 41.9402 32.132C41.9402 32.188 41.9262 32.258 41.8982 32.342C42.3742 31.698 42.8222 30.942 43.2422 30.074C44.1662 28.086 44.6282 26.448 44.6282 25.16C44.6282 24.516 44.5022 24.012 44.2502 23.648C43.9982 23.284 43.6202 23.102 43.1162 23.102C42.5282 23.102 41.8842 23.354 41.1842 23.858C40.5122 24.362 39.8542 25.034 39.2102 25.874C38.5942 26.714 38.0482 27.652 37.5722 28.688C37.1242 29.64 36.7602 30.564 36.4802 31.46C36.2282 32.328 36.1022 33.084 36.1022 33.728C36.1022 34.288 36.2142 34.736 36.4382 35.072C36.6622 35.408 37.0122 35.576 37.4882 35.576ZM51.0106 36.626C49.8346 36.626 49.0366 36.318 48.6166 35.702C48.1966 35.058 47.9866 34.302 47.9866 33.434C47.9866 32.538 48.1126 31.614 48.3646 30.662C48.6166 29.71 48.8406 28.912 49.0366 28.268C49.4846 26.7 50.0446 25.034 50.7166 23.27C51.4166 21.478 52.1726 19.728 52.9846 18.02C53.8246 16.284 54.6506 14.73 55.4626 13.358C56.1066 12.266 56.7926 11.454 57.5206 10.922C58.2766 10.362 58.9346 10.082 59.4946 10.082C59.9426 10.082 60.2926 10.25 60.5446 10.586C60.8246 10.894 60.9646 11.37 60.9646 12.014C60.9646 12.462 60.8806 12.994 60.7126 13.61C60.5726 14.226 60.3206 14.926 59.9566 15.71C58.9766 17.894 57.8006 20.078 56.4286 22.262C55.0846 24.446 53.3766 26.49 51.3046 28.394C51.1926 28.758 51.0386 29.192 50.8426 29.696C50.6746 30.172 50.5206 30.662 50.3806 31.166C50.2126 31.922 50.1286 32.566 50.1286 33.098C50.1286 33.966 50.2966 34.624 50.6326 35.072C50.9966 35.492 51.4306 35.702 51.9346 35.702C52.3826 35.702 52.8586 35.548 53.3626 35.24C53.8666 34.904 54.3426 34.428 54.7906 33.812C55.4626 32.832 56.0646 31.838 56.5966 30.83C57.1566 29.794 57.5766 28.996 57.8566 28.436C58.0246 28.128 58.2066 27.974 58.4026 27.974C58.5426 27.974 58.6126 28.058 58.6126 28.226C58.6126 28.366 58.5706 28.52 58.4866 28.688C58.2346 29.248 57.8986 29.976 57.4786 30.872C57.0866 31.74 56.5826 32.622 55.9666 33.518C55.3786 34.386 54.6646 35.128 53.8246 35.744C53.0126 36.332 52.0746 36.626 51.0106 36.626ZM51.6406 27.05C52.6486 26.014 53.6286 24.824 54.5806 23.48C55.5326 22.108 56.4146 20.694 57.2266 19.238C58.0666 17.754 58.7666 16.354 59.3266 15.038C59.5226 14.618 59.6766 14.156 59.7886 13.652C59.9286 13.148 59.9986 12.728 59.9986 12.392C59.9986 12 59.9006 11.804 59.7046 11.804C59.5926 11.804 59.4246 11.916 59.2006 12.14C58.9766 12.336 58.6826 12.686 58.3186 13.19C57.7866 13.89 57.1986 14.842 56.5546 16.046C55.9386 17.25 55.3086 18.538 54.6646 19.91C54.0206 21.282 53.4326 22.612 52.9006 23.9C52.3686 25.16 51.9486 26.21 51.6406 27.05ZM67.134 36.5C66.378 36.5 65.748 36.122 65.244 35.366C65.104 35.142 64.978 34.848 64.866 34.484C64.754 34.12 64.698 33.714 64.698 33.266C64.698 33.014 64.712 32.762 64.74 32.51C64.768 32.23 64.824 31.95 64.908 31.67C64.516 32.286 64.054 32.972 63.522 33.728C63.018 34.456 62.43 35.1 61.758 35.66C61.114 36.192 60.386 36.458 59.574 36.458C59.294 36.458 59 36.416 58.692 36.332C57.936 36.108 57.39 35.716 57.054 35.156C56.746 34.596 56.592 33.924 56.592 33.14C56.592 32.272 56.76 31.32 57.096 30.284C57.46 29.248 57.908 28.24 58.44 27.26C59 26.28 59.574 25.44 60.162 24.74C61.002 23.76 61.968 22.976 63.06 22.388C64.152 21.8 65.258 21.506 66.378 21.506C67.386 21.506 68.338 21.772 69.234 22.304C69.654 21.52 70.102 20.652 70.578 19.7C71.054 18.72 71.53 17.754 72.006 16.802C72.482 15.85 72.902 14.982 73.266 14.198C73.63 13.386 73.91 12.77 74.106 12.35C74.526 11.37 74.918 10.754 75.282 10.502C75.674 10.222 76.136 10.082 76.668 10.082C76.976 10.082 77.312 10.124 77.676 10.208C78.068 10.264 78.446 10.278 78.81 10.25C78.642 10.418 78.292 10.908 77.76 11.72C77.256 12.504 76.654 13.512 75.954 14.744C75.254 15.976 74.498 17.334 73.686 18.818C72.902 20.274 72.118 21.758 71.334 23.27C70.578 24.754 69.864 26.168 69.192 27.512C68.548 28.828 68.03 29.962 67.638 30.914C67.526 31.138 67.358 31.6 67.134 32.3C66.938 32.972 66.84 33.56 66.84 34.064C66.84 34.428 66.924 34.75 67.092 35.03C67.26 35.282 67.54 35.408 67.932 35.408C68.464 35.408 68.996 35.142 69.528 34.61C70.088 34.05 70.62 33.378 71.124 32.594C71.628 31.782 72.076 30.998 72.468 30.242C72.86 29.458 73.154 28.842 73.35 28.394C73.49 28.086 73.658 27.932 73.854 27.932C74.022 27.932 74.106 28.058 74.106 28.31C74.106 28.338 74.106 28.394 74.106 28.478C74.106 28.534 74.078 28.604 74.022 28.688C73.77 29.276 73.42 30.004 72.972 30.872C72.552 31.74 72.048 32.608 71.46 33.476C70.872 34.344 70.214 35.072 69.486 35.66C68.758 36.22 67.974 36.5 67.134 36.5ZM59.868 35.24C60.26 35.24 60.75 35.03 61.338 34.61C61.926 34.162 62.556 33.462 63.228 32.51C64.012 31.39 64.908 29.99 65.916 28.31C66.924 26.63 67.918 24.852 68.898 22.976C68.534 22.64 68.114 22.472 67.638 22.472C66.854 22.472 65.972 22.836 64.992 23.564C64.04 24.292 63.102 25.216 62.178 26.336C61.282 27.456 60.526 28.59 59.91 29.738C59.49 30.522 59.182 31.236 58.986 31.88C58.818 32.524 58.734 33.084 58.734 33.56C58.734 34.68 59.112 35.24 59.868 35.24ZM69.4079 36.71C70.4439 34.722 71.4239 32.734 72.3479 30.746C73.2719 28.73 74.2099 26.826 75.1619 25.034C75.7219 24.026 76.1839 23.326 76.5479 22.934C76.9399 22.514 77.4579 22.304 78.1019 22.304C78.3259 22.304 78.5639 22.346 78.8159 22.43C79.0679 22.486 79.3199 22.514 79.5719 22.514C79.7399 22.514 79.8659 22.5 79.9499 22.472C79.5579 22.696 79.0539 23.256 78.4379 24.152C77.8219 25.02 77.1919 26.028 76.5479 27.176C75.9039 28.324 75.3299 29.402 74.8259 30.41C75.3579 29.766 75.9039 29.122 76.4639 28.478C77.0519 27.834 77.6959 27.218 78.3959 26.63C79.0119 26.098 79.6559 25.524 80.3279 24.908C81.0279 24.264 81.7139 23.718 82.3859 23.27C83.0579 22.822 83.6459 22.598 84.1499 22.598C84.3459 22.598 84.4719 22.612 84.5279 22.64C85.0599 22.864 85.3259 23.228 85.3259 23.732C85.3259 23.9 85.2559 24.152 85.1159 24.488C84.7519 25.44 84.2759 26.42 83.6879 27.428C83.1279 28.408 82.5959 29.402 82.0919 30.41C82.5119 29.906 83.0299 29.29 83.6459 28.562C84.2899 27.834 84.9339 27.19 85.5779 26.63C86.1939 26.07 86.9779 25.482 87.9299 24.866C88.8819 24.25 89.8199 23.718 90.7439 23.27C91.6679 22.822 92.4099 22.598 92.9699 22.598C93.1659 22.598 93.3059 22.612 93.3899 22.64C93.3899 22.64 93.2359 22.92 92.9279 23.48C92.6199 24.012 92.2279 24.726 91.7519 25.622C91.3039 26.49 90.8419 27.428 90.3659 28.436C89.8899 29.416 89.4559 30.368 89.0639 31.292C88.6999 32.188 88.4619 32.944 88.3499 33.56C88.2659 33.924 88.2239 34.26 88.2239 34.568C88.2239 35.016 88.3079 35.31 88.4759 35.45C88.6439 35.59 88.8259 35.66 89.0219 35.66C89.5819 35.66 90.1559 35.366 90.7439 34.778C91.3319 34.19 91.8919 33.49 92.4239 32.678C92.9839 31.838 93.4739 31.026 93.8939 30.242C94.3139 29.43 94.6219 28.814 94.8179 28.394C94.9859 28.086 95.1539 27.932 95.3219 27.932C95.4899 27.932 95.5739 28.044 95.5739 28.268C95.5739 28.408 95.5319 28.562 95.4479 28.73C95.1119 29.374 94.7059 30.144 94.2299 31.04C93.7819 31.936 93.2639 32.818 92.6759 33.686C92.0879 34.526 91.4299 35.24 90.7019 35.828C90.0019 36.388 89.2459 36.668 88.4339 36.668C87.8459 36.668 87.2439 36.472 86.6279 36.08C86.0399 35.688 85.7459 34.96 85.7459 33.896C85.7459 33.308 85.8719 32.594 86.1239 31.754C86.3199 31.194 86.6139 30.55 87.0059 29.822C87.4259 29.094 87.9299 28.254 88.5179 27.302C88.7979 26.826 88.9379 26.448 88.9379 26.168C88.9379 25.832 88.7699 25.664 88.4339 25.664C88.1539 25.664 87.7619 25.804 87.2579 26.084C86.7819 26.364 86.1799 26.854 85.4519 27.554C85.0039 27.974 84.4719 28.562 83.8559 29.318C83.2679 30.046 82.6659 30.844 82.0499 31.712C81.4339 32.58 80.9019 33.434 80.4539 34.274C80.0059 35.114 79.7119 35.856 79.5719 36.5C79.1519 36.5 78.8159 36.332 78.5639 35.996C78.3119 35.632 78.1859 35.212 78.1859 34.736C78.1859 34.652 78.1859 34.568 78.1859 34.484C78.1859 34.4 78.1999 34.302 78.2279 34.19C78.3679 33.322 78.5919 32.51 78.8999 31.754C79.2079 30.998 79.5579 30.214 79.9499 29.402C80.2579 28.814 80.5659 28.184 80.8739 27.512C81.1819 26.812 81.3359 26.28 81.3359 25.916C81.3359 25.692 81.2519 25.58 81.0839 25.58C80.8879 25.58 80.5659 25.734 80.1179 26.042C79.6699 26.322 79.0539 26.826 78.2699 27.554C77.5699 28.226 76.7159 29.192 75.7079 30.452C74.7279 31.712 73.6499 33.504 72.4739 35.828C72.3059 36.136 72.1099 36.332 71.8859 36.416C71.6619 36.472 71.3119 36.5 70.8359 36.5C70.5279 36.5 70.2759 36.5 70.0799 36.5C69.8559 36.528 69.6319 36.598 69.4079 36.71ZM103.797 36.626C103.489 36.654 103.139 36.584 102.747 36.416C102.355 36.248 102.005 35.94 101.697 35.492C101.417 35.044 101.277 34.414 101.277 33.602C101.277 32.93 101.403 32.118 101.655 31.166C101.319 31.698 100.885 32.356 100.353 33.14C99.821 33.896 99.247 34.568 98.631 35.156C98.099 35.66 97.595 36.024 97.119 36.248C96.643 36.472 96.209 36.584 95.817 36.584C95.089 36.584 94.501 36.262 94.053 35.618C93.605 34.946 93.381 34.078 93.381 33.014C93.381 31.894 93.661 30.62 94.221 29.192C94.781 27.764 95.691 26.28 96.951 24.74C97.763 23.76 98.743 22.976 99.891 22.388C101.067 21.772 102.215 21.464 103.335 21.464C103.979 21.464 104.595 21.576 105.183 21.8C105.771 21.996 106.289 22.332 106.737 22.808C106.933 23.004 107.031 23.228 107.031 23.48C107.031 23.648 106.961 23.788 106.821 23.9C106.681 24.012 106.499 24.04 106.275 23.984C105.967 23.004 105.309 22.514 104.301 22.514C103.825 22.514 103.279 22.668 102.663 22.976C101.711 23.48 100.717 24.306 99.681 25.454C98.673 26.602 97.791 27.792 97.035 29.024C96.923 29.192 96.741 29.514 96.489 29.99C96.265 30.466 96.041 30.998 95.817 31.586C95.593 32.174 95.439 32.748 95.355 33.308C95.327 33.476 95.313 33.602 95.313 33.686C95.313 33.742 95.313 33.84 95.313 33.98C95.313 34.904 95.663 35.366 96.363 35.366C97.203 35.366 98.155 34.75 99.219 33.518C99.947 32.622 100.605 31.684 101.193 30.704C101.781 29.724 102.383 28.674 102.999 27.554C103.419 26.798 103.811 26.168 104.175 25.664C104.539 25.16 105.057 24.908 105.729 24.908C106.037 24.908 106.345 24.95 106.653 25.034C106.961 25.118 107.283 25.132 107.619 25.076C107.395 25.3 107.087 25.72 106.695 26.336C106.331 26.952 105.939 27.652 105.519 28.436C105.099 29.22 104.721 30.018 104.385 30.83C104.049 31.642 103.811 32.342 103.671 32.93C103.643 33.098 103.601 33.336 103.545 33.644C103.517 33.952 103.503 34.176 103.503 34.316C103.503 35.1 103.727 35.492 104.175 35.492C104.623 35.492 105.099 35.226 105.603 34.694C106.135 34.162 106.653 33.504 107.157 32.72C107.661 31.936 108.123 31.152 108.543 30.368C108.963 29.556 109.299 28.898 109.551 28.394C109.663 28.114 109.831 27.974 110.055 27.974C110.195 27.974 110.265 28.072 110.265 28.268C110.265 28.352 110.223 28.506 110.139 28.73C109.803 29.43 109.397 30.228 108.921 31.124C108.445 31.992 107.927 32.846 107.367 33.686C106.807 34.498 106.219 35.184 105.603 35.744C105.015 36.276 104.413 36.57 103.797 36.626ZM111.549 36.5C110.765 36.5 110.065 36.234 109.449 35.702C108.833 35.142 108.525 34.274 108.525 33.098C108.525 32.174 108.693 31.04 109.029 29.696C109.393 28.324 109.827 26.91 110.331 25.454C110.863 23.97 111.381 22.626 111.885 21.422H109.659C109.463 21.422 109.365 21.282 109.365 21.002C109.365 20.862 109.393 20.736 109.449 20.624C109.533 20.512 109.645 20.456 109.785 20.456H112.305C112.781 19.392 113.285 18.356 113.817 17.348C114.349 16.34 114.867 15.388 115.371 14.492C116.015 13.372 116.701 12.532 117.429 11.972C118.157 11.412 118.787 11.132 119.319 11.132C119.739 11.132 120.089 11.3 120.369 11.636C120.649 11.944 120.789 12.42 120.789 13.064C120.789 13.456 120.705 14.002 120.537 14.702C120.369 15.374 120.103 16.088 119.739 16.844C119.543 17.236 119.263 17.796 118.899 18.524C118.563 19.252 118.227 19.896 117.891 20.456H119.907C120.103 20.456 120.201 20.596 120.201 20.876C120.201 20.988 120.173 21.114 120.117 21.254C120.061 21.366 119.977 21.422 119.865 21.422H117.387C116.687 22.626 115.889 23.802 114.993 24.95C114.097 26.098 113.033 27.246 111.801 28.394C111.717 28.646 111.605 29.01 111.465 29.486C111.353 29.962 111.241 30.452 111.129 30.956C111.045 31.432 110.961 31.838 110.877 32.174C110.821 32.51 110.793 32.678 110.793 32.678C110.709 33.042 110.667 33.378 110.667 33.686C110.667 34.274 110.807 34.708 111.087 34.988C111.367 35.24 111.689 35.366 112.053 35.366C112.277 35.366 112.501 35.338 112.725 35.282C112.949 35.198 113.201 35.058 113.481 34.862C114.461 34.162 115.315 33.21 116.043 32.006C116.799 30.802 117.457 29.64 118.017 28.52C118.185 28.184 118.353 28.016 118.521 28.016C118.633 28.016 118.689 28.1 118.689 28.268C118.689 28.352 118.647 28.506 118.563 28.73C117.947 30.018 117.429 31.054 117.009 31.838C116.589 32.622 116.183 33.28 115.791 33.812C115.399 34.316 114.937 34.82 114.405 35.324C114.013 35.716 113.565 36.01 113.061 36.206C112.557 36.402 112.053 36.5 111.549 36.5ZM114.867 20.456H117.009C117.401 19.728 117.765 19.014 118.101 18.314C118.465 17.614 118.787 16.914 119.067 16.214C119.263 15.766 119.431 15.262 119.571 14.702C119.711 14.142 119.781 13.708 119.781 13.4C119.781 12.98 119.683 12.77 119.487 12.77C119.347 12.77 119.137 12.896 118.857 13.148C118.605 13.372 118.283 13.764 117.891 14.324C117.387 15.024 116.883 15.934 116.379 17.054C115.903 18.146 115.399 19.28 114.867 20.456ZM112.137 27.05C112.949 26.21 113.705 25.314 114.405 24.362C115.133 23.41 115.805 22.43 116.421 21.422H114.447C113.999 22.458 113.579 23.466 113.187 24.446C112.795 25.426 112.445 26.294 112.137 27.05ZM120.922 36.668C119.886 36.668 118.948 36.332 118.108 35.66C117.296 34.988 116.89 33.966 116.89 32.594C116.89 31.334 117.198 29.99 117.814 28.562C118.43 27.106 119.214 25.832 120.166 24.74C120.978 23.788 121.888 23.004 122.896 22.388C123.904 21.772 124.856 21.464 125.752 21.464C126.368 21.464 126.9 21.632 127.348 21.968C127.824 22.332 128.062 22.85 128.062 23.522C128.062 24.222 127.796 24.992 127.264 25.832C126.732 26.672 125.976 27.456 124.996 28.184C124.576 28.492 124.044 28.786 123.4 29.066C122.756 29.346 122.112 29.584 121.468 29.78C120.824 29.948 120.292 30.032 119.872 30.032C119.732 30.368 119.592 30.816 119.452 31.376C119.34 31.936 119.284 32.51 119.284 33.098C119.284 33.798 119.424 34.428 119.704 34.988C119.984 35.548 120.502 35.828 121.258 35.828C122.182 35.828 123.022 35.562 123.778 35.03C124.534 34.498 125.206 33.84 125.794 33.056C126.382 32.244 126.872 31.432 127.264 30.62C127.684 29.808 128.02 29.122 128.272 28.562C128.44 28.17 128.664 27.974 128.944 27.974C129.084 27.974 129.154 28.044 129.154 28.184C129.154 28.296 129.112 28.436 129.028 28.604C128.636 29.444 128.216 30.34 127.768 31.292C127.32 32.216 126.788 33.098 126.172 33.938C125.556 34.75 124.814 35.408 123.946 35.912C123.106 36.416 122.098 36.668 120.922 36.668ZM120.166 29.276C120.558 29.276 121.216 29.136 122.14 28.856C123.064 28.548 123.904 28.072 124.66 27.428C125.388 26.784 125.948 26.084 126.34 25.328C126.732 24.544 126.928 23.886 126.928 23.354C126.928 22.738 126.704 22.43 126.256 22.43C125.92 22.43 125.458 22.654 124.87 23.102C124.282 23.55 123.554 24.306 122.686 25.37C122.154 26.042 121.65 26.77 121.174 27.554C120.698 28.338 120.362 28.912 120.166 29.276Z" fill="#121212"/>
<path d="M38.0479 39.0742L34.6689 45.5H33.6875L37.5547 38.3906H38.1846L38.0479 39.0742ZM38.8584 45.5L37.6816 38.9668L37.7744 38.3906H38.3604L39.7617 45.5H38.8584ZM39.1855 42.8682L39.0488 43.6396H35.167L35.3037 42.8682H39.1855ZM42.8281 38L41.5244 45.5H40.6406L41.9395 38H42.8281ZM44.5322 41.3203L43.8096 45.5H42.9209L43.8389 40.2168H44.6787L44.5322 41.3203ZM44.1367 42.6582L43.7363 42.6484C43.7819 42.3197 43.8633 42.0023 43.9805 41.6963C44.0977 41.3903 44.2539 41.1169 44.4492 40.876C44.6478 40.6351 44.887 40.4463 45.167 40.3096C45.4469 40.1729 45.7708 40.1094 46.1387 40.1191C46.4121 40.1257 46.6432 40.1794 46.832 40.2803C47.0208 40.3779 47.1722 40.513 47.2861 40.6855C47.4033 40.8548 47.4814 41.0501 47.5205 41.2715C47.5628 41.4928 47.5726 41.7288 47.5498 41.9795L46.959 45.5H46.0752L46.6611 42.0186C46.6872 41.7972 46.6742 41.6019 46.6221 41.4326C46.5732 41.2633 46.4805 41.1299 46.3438 41.0322C46.207 40.9313 46.0215 40.8776 45.7871 40.8711C45.5234 40.8646 45.2939 40.9102 45.0986 41.0078C44.9066 41.1055 44.7454 41.2406 44.6152 41.4131C44.4883 41.5824 44.3857 41.776 44.3076 41.9941C44.2295 42.209 44.1725 42.4303 44.1367 42.6582ZM47.5498 42.1602L46.915 42.3457C46.9541 42.043 47.0355 41.7565 47.1592 41.4863C47.2861 41.2161 47.4505 40.9769 47.6523 40.7686C47.8542 40.5602 48.0885 40.3975 48.3555 40.2803C48.6224 40.1631 48.917 40.1077 49.2393 40.1143C49.5257 40.1208 49.7682 40.1745 49.9668 40.2754C50.1654 40.373 50.3232 40.5081 50.4404 40.6807C50.5609 40.8532 50.6406 41.055 50.6797 41.2861C50.722 41.514 50.7285 41.7614 50.6992 42.0283L50.1182 45.5H49.2295L49.8154 42.0137C49.8415 41.7891 49.8301 41.5921 49.7812 41.4229C49.7357 41.2536 49.6445 41.1217 49.5078 41.0273C49.3711 40.9297 49.1823 40.8792 48.9414 40.876C48.7493 40.8695 48.5736 40.8988 48.4141 40.9639C48.2546 41.029 48.1162 41.1217 47.999 41.2422C47.8818 41.3594 47.7842 41.4961 47.7061 41.6523C47.6312 41.8086 47.5791 41.9779 47.5498 42.1602ZM51.666 42.9463L51.6807 42.834C51.7197 42.4792 51.8076 42.1374 51.9443 41.8086C52.0843 41.4798 52.2682 41.1868 52.4961 40.9297C52.724 40.6725 52.9941 40.4707 53.3066 40.3242C53.6191 40.1777 53.9674 40.1094 54.3516 40.1191C54.7227 40.1257 55.04 40.2054 55.3037 40.3584C55.5706 40.5114 55.7855 40.7148 55.9482 40.9688C56.1143 41.2194 56.2298 41.5026 56.2949 41.8184C56.36 42.1341 56.3763 42.4596 56.3438 42.7949L56.334 42.9072C56.2917 43.262 56.2005 43.6022 56.0605 43.9277C55.9206 44.2533 55.735 44.543 55.5039 44.7969C55.276 45.0508 55.0059 45.251 54.6934 45.3975C54.3809 45.5407 54.0342 45.6074 53.6533 45.5977C53.2855 45.5911 52.9681 45.513 52.7012 45.3633C52.4375 45.2103 52.2243 45.0085 52.0615 44.7578C51.8988 44.5072 51.7848 44.2256 51.7197 43.9131C51.6546 43.6006 51.6367 43.2783 51.666 42.9463ZM52.5596 42.834L52.5498 42.9512C52.527 43.1562 52.5254 43.3695 52.5449 43.5908C52.5677 43.8122 52.6198 44.0173 52.7012 44.2061C52.7858 44.3949 52.9079 44.5495 53.0674 44.6699C53.2269 44.7904 53.4336 44.8538 53.6875 44.8604C53.9577 44.8669 54.1953 44.8148 54.4004 44.7041C54.6055 44.5902 54.7796 44.4372 54.9229 44.2451C55.0693 44.0531 55.1849 43.8398 55.2695 43.6055C55.3574 43.3711 55.416 43.1383 55.4453 42.9072L55.4551 42.7949C55.4779 42.5898 55.4779 42.3766 55.4551 42.1553C55.4355 41.9307 55.3835 41.7223 55.2988 41.5303C55.2174 41.335 55.097 41.1771 54.9375 41.0566C54.778 40.9329 54.5713 40.8678 54.3174 40.8613C54.0472 40.8516 53.8079 40.9053 53.5996 41.0225C53.3945 41.1364 53.2204 41.291 53.0771 41.4863C52.9339 41.6816 52.8184 41.8981 52.7305 42.1357C52.6458 42.3701 52.5889 42.6029 52.5596 42.834ZM60.2354 44.0693C60.2646 43.8675 60.2272 43.7096 60.123 43.5957C60.0221 43.4818 59.8887 43.3955 59.7227 43.3369C59.5599 43.2751 59.4004 43.2246 59.2441 43.1855C59.0488 43.1367 58.8519 43.0765 58.6533 43.0049C58.4548 42.9333 58.2725 42.8421 58.1064 42.7314C57.9437 42.6175 57.8135 42.4775 57.7158 42.3115C57.6214 42.1423 57.5791 41.9372 57.5889 41.6963C57.6019 41.4359 57.6702 41.2064 57.7939 41.0078C57.9209 40.8092 58.0837 40.6432 58.2822 40.5098C58.484 40.3763 58.7038 40.277 58.9414 40.2119C59.179 40.1468 59.415 40.1159 59.6494 40.1191C59.9814 40.1257 60.2826 40.194 60.5527 40.3242C60.8262 40.4544 61.0426 40.6416 61.2021 40.8857C61.3617 41.1299 61.4365 41.4261 61.4268 41.7744L60.5527 41.7695C60.5592 41.584 60.5218 41.4245 60.4404 41.291C60.359 41.1576 60.2467 41.055 60.1035 40.9834C59.9603 40.9085 59.7975 40.8695 59.6152 40.8662C59.4427 40.863 59.2734 40.8906 59.1074 40.9492C58.9414 41.0046 58.7998 41.0924 58.6826 41.2129C58.5654 41.3301 58.4938 41.4831 58.4678 41.6719C58.4482 41.8118 58.4694 41.9274 58.5312 42.0186C58.5931 42.1064 58.6777 42.1781 58.7852 42.2334C58.8958 42.2855 59.0114 42.3294 59.1318 42.3652C59.2555 42.3978 59.3678 42.4271 59.4688 42.4531C59.7357 42.528 59.9993 42.6224 60.2598 42.7363C60.5202 42.8503 60.7318 43.0081 60.8945 43.21C61.0573 43.4085 61.1305 43.6706 61.1143 43.9961C61.1012 44.2728 61.028 44.5137 60.8945 44.7188C60.7643 44.9206 60.5951 45.0882 60.3867 45.2217C60.1816 45.3519 59.9554 45.4479 59.708 45.5098C59.4606 45.5716 59.2132 45.6009 58.9658 45.5977C58.624 45.5911 58.305 45.5212 58.0088 45.3877C57.7158 45.251 57.4814 45.0557 57.3057 44.8018C57.1299 44.5446 57.0469 44.2321 57.0566 43.8643L57.9404 43.8691C57.9404 44.0807 57.9844 44.2598 58.0723 44.4062C58.1634 44.5495 58.2887 44.6585 58.4482 44.7334C58.6077 44.8083 58.79 44.8473 58.9951 44.8506C59.1676 44.8538 59.3434 44.8311 59.5225 44.7822C59.7048 44.7334 59.861 44.652 59.9912 44.5381C60.1247 44.4209 60.2061 44.2646 60.2354 44.0693ZM65.0547 40.2168L64.9326 40.9102H62.1543L62.2764 40.2168H65.0547ZM63.4385 38.9326H64.3174L63.4238 44.2012C63.4141 44.3151 63.4173 44.4176 63.4336 44.5088C63.4499 44.5999 63.4889 44.6732 63.5508 44.7285C63.6126 44.7806 63.707 44.8083 63.834 44.8115C63.9056 44.8115 63.9756 44.8066 64.0439 44.7969C64.1156 44.7839 64.1872 44.7725 64.2588 44.7627L64.1953 45.5049C64.0911 45.5342 63.9837 45.5553 63.873 45.5684C63.7656 45.5846 63.6582 45.5911 63.5508 45.5879C63.2806 45.5846 63.069 45.5163 62.916 45.3828C62.763 45.2493 62.6589 45.0768 62.6035 44.8652C62.5482 44.6536 62.5319 44.4274 62.5547 44.1865L63.4385 38.9326ZM70.8115 44.5967L71.251 41.8672C71.2738 41.6654 71.2542 41.488 71.1924 41.335C71.1338 41.182 71.0345 41.0632 70.8945 40.9785C70.7578 40.8939 70.5853 40.8483 70.377 40.8418C70.1947 40.8385 70.0156 40.8678 69.8398 40.9297C69.6673 40.9915 69.5176 41.0843 69.3906 41.208C69.2637 41.3317 69.1807 41.488 69.1416 41.6768L68.2627 41.6816C68.2855 41.418 68.3685 41.1885 68.5117 40.9932C68.6549 40.7946 68.834 40.6302 69.0488 40.5C69.2637 40.3665 69.4948 40.2689 69.7422 40.207C69.9896 40.1419 70.2305 40.111 70.4648 40.1143C70.8197 40.1208 71.1273 40.1973 71.3877 40.3438C71.6514 40.487 71.8499 40.6888 71.9834 40.9492C72.1169 41.2096 72.1657 41.5221 72.1299 41.8867L71.7246 44.3477C71.6953 44.5267 71.6774 44.7074 71.6709 44.8896C71.6676 45.0687 71.6888 45.2445 71.7344 45.417L71.7246 45.5L70.8311 45.5049C70.7952 45.3551 70.7773 45.2038 70.7773 45.0508C70.7806 44.8978 70.792 44.7464 70.8115 44.5967ZM71.3535 42.2969L71.251 42.9316L70.416 42.9268C70.2402 42.9268 70.0547 42.9398 69.8594 42.9658C69.6641 42.9919 69.4785 43.0407 69.3027 43.1123C69.127 43.1839 68.9788 43.2881 68.8584 43.4248C68.738 43.5583 68.6647 43.7324 68.6387 43.9473C68.6191 44.123 68.6403 44.276 68.7021 44.4062C68.7673 44.5332 68.8649 44.6325 68.9951 44.7041C69.1253 44.7757 69.2767 44.8132 69.4492 44.8164C69.6738 44.8197 69.8952 44.7757 70.1133 44.6846C70.3314 44.5934 70.5218 44.4632 70.6846 44.2939C70.8473 44.1247 70.9596 43.9294 71.0215 43.708L71.3438 44.1426C71.2819 44.3574 71.181 44.556 71.041 44.7383C70.901 44.9173 70.735 45.0719 70.543 45.2021C70.3542 45.3324 70.1507 45.4333 69.9326 45.5049C69.7145 45.5765 69.4964 45.6107 69.2783 45.6074C68.9821 45.6009 68.7135 45.5342 68.4727 45.4072C68.235 45.2803 68.0462 45.1029 67.9062 44.875C67.7695 44.6439 67.7109 44.3753 67.7305 44.0693C67.75 43.734 67.8379 43.4525 67.9941 43.2246C68.1504 42.9967 68.3506 42.8145 68.5947 42.6777C68.8421 42.541 69.1123 42.4434 69.4053 42.3848C69.6982 42.3229 69.988 42.292 70.2744 42.292L71.3535 42.2969ZM75.1621 38L73.8584 45.5H72.9746L74.2734 38H75.1621ZM77.5254 38L76.2217 45.5H75.3379L76.6367 38H77.5254ZM81.6318 44.8994L83.8584 40.2168H84.835L81.7344 46.3203C81.653 46.4928 81.557 46.6589 81.4463 46.8184C81.3389 46.9779 81.2152 47.1211 81.0752 47.248C80.9385 47.375 80.7839 47.4743 80.6113 47.5459C80.4388 47.6175 80.2484 47.6533 80.04 47.6533C79.9521 47.6501 79.8643 47.6403 79.7764 47.624C79.6852 47.6077 79.5973 47.5898 79.5127 47.5703L79.5664 46.8281C79.6055 46.8346 79.6445 46.8395 79.6836 46.8428C79.7227 46.8493 79.7601 46.8542 79.7959 46.8574C80.014 46.8639 80.2012 46.833 80.3574 46.7646C80.5169 46.6963 80.6536 46.5954 80.7676 46.4619C80.8848 46.3285 80.9889 46.1689 81.0801 45.9834L81.6318 44.8994ZM81.3877 40.2168L82.0176 44.3672L82.0762 45.2998L81.417 45.6221L80.46 40.2168H81.3877ZM84.8301 42.9463L84.8447 42.834C84.8838 42.4792 84.9717 42.1374 85.1084 41.8086C85.2484 41.4798 85.4323 41.1868 85.6602 40.9297C85.888 40.6725 86.1582 40.4707 86.4707 40.3242C86.7832 40.1777 87.1315 40.1094 87.5156 40.1191C87.8867 40.1257 88.2041 40.2054 88.4678 40.3584C88.7347 40.5114 88.9495 40.7148 89.1123 40.9688C89.2783 41.2194 89.3939 41.5026 89.459 41.8184C89.5241 42.1341 89.5404 42.4596 89.5078 42.7949L89.498 42.9072C89.4557 43.262 89.3646 43.6022 89.2246 43.9277C89.0846 44.2533 88.8991 44.543 88.668 44.7969C88.4401 45.0508 88.1699 45.251 87.8574 45.3975C87.5449 45.5407 87.1982 45.6074 86.8174 45.5977C86.4495 45.5911 86.1322 45.513 85.8652 45.3633C85.6016 45.2103 85.3883 45.0085 85.2256 44.7578C85.0628 44.5072 84.9489 44.2256 84.8838 43.9131C84.8187 43.6006 84.8008 43.2783 84.8301 42.9463ZM85.7236 42.834L85.7139 42.9512C85.6911 43.1562 85.6895 43.3695 85.709 43.5908C85.7318 43.8122 85.7839 44.0173 85.8652 44.2061C85.9499 44.3949 86.0719 44.5495 86.2314 44.6699C86.391 44.7904 86.5977 44.8538 86.8516 44.8604C87.1217 44.8669 87.3594 44.8148 87.5645 44.7041C87.7695 44.5902 87.9437 44.4372 88.0869 44.2451C88.2334 44.0531 88.349 43.8398 88.4336 43.6055C88.5215 43.3711 88.5801 43.1383 88.6094 42.9072L88.6191 42.7949C88.6419 42.5898 88.6419 42.3766 88.6191 42.1553C88.5996 41.9307 88.5475 41.7223 88.4629 41.5303C88.3815 41.335 88.2611 41.1771 88.1016 41.0566C87.9421 40.9329 87.7354 40.8678 87.4814 40.8613C87.2113 40.8516 86.972 40.9053 86.7637 41.0225C86.5586 41.1364 86.3844 41.291 86.2412 41.4863C86.098 41.6816 85.9824 41.8981 85.8945 42.1357C85.8099 42.3701 85.7529 42.6029 85.7236 42.834ZM93.4971 44.2305L94.1904 40.2168H95.0791L94.1611 45.5H93.3164L93.4971 44.2305ZM93.8291 43.166L94.1904 43.1514C94.1481 43.4834 94.0732 43.7992 93.9658 44.0986C93.8584 44.3949 93.7119 44.6585 93.5264 44.8896C93.3441 45.1175 93.1162 45.2965 92.8428 45.4268C92.5726 45.5537 92.252 45.6123 91.8809 45.6025C91.5911 45.5928 91.3486 45.5342 91.1533 45.4268C90.9613 45.3193 90.8099 45.1745 90.6992 44.9922C90.5885 44.8099 90.5153 44.6016 90.4795 44.3672C90.4437 44.1328 90.4388 43.8854 90.4648 43.625L91.0361 40.2168H91.9199L91.3486 43.6396C91.3356 43.7829 91.334 43.9245 91.3438 44.0645C91.3535 44.2012 91.3828 44.3265 91.4316 44.4404C91.4805 44.5544 91.5553 44.6471 91.6562 44.7188C91.7604 44.7871 91.8971 44.8245 92.0664 44.8311C92.418 44.8441 92.7158 44.779 92.96 44.6357C93.2041 44.4893 93.3978 44.2874 93.541 44.0303C93.6842 43.7731 93.7803 43.485 93.8291 43.166ZM99.5469 41.3984L98.834 45.5H97.9502L98.8682 40.2168H99.7031L99.5469 41.3984ZM99.1367 42.6582L98.7754 42.6484C98.821 42.3327 98.904 42.0234 99.0244 41.7207C99.1481 41.4147 99.3092 41.1396 99.5078 40.8955C99.7096 40.6514 99.9489 40.4593 100.226 40.3193C100.506 40.1761 100.825 40.1094 101.183 40.1191C101.466 40.1257 101.702 40.181 101.891 40.2852C102.083 40.3861 102.232 40.5244 102.34 40.7002C102.447 40.876 102.519 41.0794 102.555 41.3105C102.59 41.5384 102.594 41.7809 102.564 42.0381L101.988 45.5H101.1L101.686 42.0234C101.708 41.8118 101.7 41.6214 101.661 41.4521C101.625 41.2796 101.544 41.1429 101.417 41.042C101.293 40.9378 101.114 40.8825 100.88 40.876C100.632 40.8695 100.41 40.9167 100.211 41.0176C100.012 41.1185 99.8382 41.2568 99.6885 41.4326C99.542 41.6051 99.4215 41.7988 99.3271 42.0137C99.236 42.2253 99.1725 42.4401 99.1367 42.6582ZM105.548 45.5977C105.187 45.5911 104.872 45.5195 104.605 45.3828C104.342 45.2428 104.125 45.0557 103.956 44.8213C103.79 44.5837 103.671 44.3135 103.6 44.0107C103.528 43.708 103.507 43.3906 103.536 43.0586L103.556 42.8486C103.588 42.5101 103.671 42.1781 103.805 41.8525C103.938 41.5238 104.116 41.2275 104.337 40.9639C104.562 40.7002 104.825 40.4919 105.128 40.3389C105.434 40.1826 105.772 40.1094 106.144 40.1191C106.511 40.1257 106.817 40.2038 107.062 40.3535C107.306 40.5033 107.496 40.7018 107.633 40.9492C107.773 41.1934 107.864 41.4684 107.906 41.7744C107.949 42.0771 107.952 42.388 107.916 42.707L107.862 43.1123H104.029L104.146 42.375L107.071 42.3799L107.086 42.3018C107.118 42.0674 107.105 41.8411 107.047 41.623C106.988 41.4049 106.881 41.2259 106.725 41.0859C106.572 40.9427 106.365 40.8678 106.104 40.8613C105.834 40.8516 105.6 40.9069 105.401 41.0273C105.203 41.1445 105.037 41.304 104.903 41.5059C104.77 41.7044 104.664 41.9225 104.586 42.1602C104.511 42.3945 104.459 42.624 104.43 42.8486L104.41 43.0537C104.391 43.262 104.397 43.472 104.43 43.6836C104.462 43.8952 104.524 44.0889 104.615 44.2646C104.71 44.4372 104.84 44.5788 105.006 44.6895C105.172 44.7969 105.377 44.8538 105.621 44.8604C105.917 44.8669 106.183 44.8034 106.417 44.6699C106.655 44.5332 106.871 44.3607 107.066 44.1523L107.569 44.582C107.416 44.8066 107.234 44.9954 107.022 45.1484C106.811 45.3014 106.58 45.4154 106.329 45.4902C106.078 45.5651 105.818 45.6009 105.548 45.5977ZM110.694 45.5977C110.333 45.5911 110.019 45.5195 109.752 45.3828C109.488 45.2428 109.272 45.0557 109.103 44.8213C108.937 44.5837 108.818 44.3135 108.746 44.0107C108.674 43.708 108.653 43.3906 108.683 43.0586L108.702 42.8486C108.735 42.5101 108.818 42.1781 108.951 41.8525C109.085 41.5238 109.262 41.2275 109.483 40.9639C109.708 40.7002 109.972 40.4919 110.274 40.3389C110.58 40.1826 110.919 40.1094 111.29 40.1191C111.658 40.1257 111.964 40.2038 112.208 40.3535C112.452 40.5033 112.643 40.7018 112.779 40.9492C112.919 41.1934 113.01 41.4684 113.053 41.7744C113.095 42.0771 113.098 42.388 113.062 42.707L113.009 43.1123H109.176L109.293 42.375L112.218 42.3799L112.232 42.3018C112.265 42.0674 112.252 41.8411 112.193 41.623C112.135 41.4049 112.027 41.2259 111.871 41.0859C111.718 40.9427 111.511 40.8678 111.251 40.8613C110.981 40.8516 110.746 40.9069 110.548 41.0273C110.349 41.1445 110.183 41.304 110.05 41.5059C109.916 41.7044 109.811 41.9225 109.732 42.1602C109.658 42.3945 109.605 42.624 109.576 42.8486L109.557 43.0537C109.537 43.262 109.544 43.472 109.576 43.6836C109.609 43.8952 109.671 44.0889 109.762 44.2646C109.856 44.4372 109.986 44.5788 110.152 44.6895C110.318 44.7969 110.523 44.8538 110.768 44.8604C111.064 44.8669 111.329 44.8034 111.563 44.6699C111.801 44.5332 112.018 44.3607 112.213 44.1523L112.716 44.582C112.563 44.8066 112.381 44.9954 112.169 45.1484C111.957 45.3014 111.726 45.4154 111.476 45.4902C111.225 45.5651 110.965 45.6009 110.694 45.5977ZM117.022 44.4209L118.136 38H119.024L117.721 45.5H116.915L117.022 44.4209ZM113.839 42.9561L113.849 42.8535C113.891 42.528 113.969 42.2025 114.083 41.877C114.2 41.5514 114.358 41.2536 114.557 40.9834C114.755 40.7132 114.996 40.4984 115.279 40.3389C115.562 40.1794 115.893 40.1045 116.271 40.1143C116.609 40.124 116.892 40.2038 117.12 40.3535C117.348 40.5033 117.527 40.7018 117.657 40.9492C117.791 41.1934 117.88 41.4619 117.926 41.7549C117.975 42.0479 117.989 42.3424 117.97 42.6387L117.916 43.0879C117.861 43.4036 117.77 43.7129 117.643 44.0156C117.516 44.3184 117.351 44.5918 117.149 44.8359C116.951 45.0768 116.712 45.2673 116.432 45.4072C116.155 45.5472 115.838 45.6123 115.479 45.6025C115.134 45.5895 114.848 45.5 114.62 45.334C114.396 45.168 114.22 44.9548 114.093 44.6943C113.969 44.4307 113.888 44.1475 113.849 43.8447C113.813 43.5387 113.81 43.2425 113.839 42.9561ZM114.747 42.8438L114.737 42.9463C114.715 43.1416 114.706 43.3483 114.713 43.5664C114.723 43.7812 114.76 43.9847 114.825 44.1768C114.89 44.3656 114.996 44.5218 115.143 44.6455C115.289 44.766 115.488 44.8311 115.738 44.8408C116.005 44.8473 116.253 44.7871 116.48 44.6602C116.708 44.5332 116.904 44.3639 117.066 44.1523C117.229 43.9408 117.346 43.7113 117.418 43.4639L117.608 42.2773C117.618 42.0983 117.597 41.9274 117.545 41.7646C117.493 41.5986 117.415 41.4505 117.311 41.3203C117.21 41.1901 117.084 41.0859 116.935 41.0078C116.788 40.9264 116.624 40.8841 116.441 40.8809C116.168 40.8711 115.932 40.9248 115.733 41.042C115.535 41.1559 115.367 41.3105 115.23 41.5059C115.097 41.6979 114.991 41.9111 114.913 42.1455C114.835 42.3799 114.78 42.6126 114.747 42.8438Z" fill="#121212"/>
</svg>
