<svg width="32" height="32" viewBox="0 0 32 32" fill="none" xmlns="http://www.w3.org/2000/svg">
<g id="vuesax/outline/shield-tick">
<g id="shield-tick">
<path id="Vector" d="M16.0001 30.3466C14.5468 30.3466 13.1068 29.9199 11.9734 29.0799L6.24011 24.7999C4.72011 23.6666 3.53345 21.2933 3.53345 19.4133V9.49326C3.53345 7.43992 5.04011 5.25326 6.97345 4.53326L13.6268 2.03992C14.9468 1.54659 17.0268 1.54659 18.3468 2.03992L25.0001 4.53326C26.9334 5.25326 28.4401 7.43992 28.4401 9.49326V19.3999C28.4401 21.2933 27.2534 23.6533 25.7334 24.7866L20.0001 29.0666C18.8934 29.9199 17.4534 30.3466 16.0001 30.3466ZM14.3334 3.91992L7.68011 6.41326C6.54678 6.83992 5.54678 8.27992 5.54678 9.50659V19.4133C5.54678 20.6799 6.44011 22.4533 7.44011 23.1999L13.1734 27.4799C14.7068 28.6266 17.2934 28.6266 18.8401 27.4799L24.5734 23.1999C25.5868 22.4399 26.4668 20.6799 26.4668 19.4133V9.49326C26.4668 8.27992 25.4668 6.83992 24.3334 6.39992L17.6801 3.90659C16.7734 3.58659 15.2268 3.58659 14.3334 3.91992Z" fill="#121212"/>
<path id="Vector_2" d="M14.2134 18.9734C13.9601 18.9734 13.7067 18.8801 13.5067 18.6801L11.3601 16.5334C10.9734 16.1467 10.9734 15.5067 11.3601 15.1201C11.7467 14.7334 12.3867 14.7334 12.7734 15.1201L14.2134 16.5601L19.2401 11.5334C19.6267 11.1467 20.2667 11.1467 20.6534 11.5334C21.0401 11.9201 21.0401 12.5601 20.6534 12.9467L14.9201 18.6801C14.7201 18.8801 14.4667 18.9734 14.2134 18.9734Z" fill="#121212"/>
</g>
</g>
</svg>
