<svg width="32" height="32" viewBox="0 0 32 32" fill="none" xmlns="http://www.w3.org/2000/svg">
<g id="vuesax/outline/watch">
<g id="watch">
<path id="Vector" d="M20.6667 26.3334H11.3334C7.68008 26.3334 5.66675 24.3201 5.66675 20.6667V11.3334C5.66675 7.68008 7.68008 5.66675 11.3334 5.66675H20.6667C24.3201 5.66675 26.3334 7.68008 26.3334 11.3334V20.6667C26.3334 24.3201 24.3201 26.3334 20.6667 26.3334ZM11.3334 7.66675C8.76008 7.66675 7.66675 8.76008 7.66675 11.3334V20.6667C7.66675 23.2401 8.76008 24.3334 11.3334 24.3334H20.6667C23.2401 24.3334 24.3334 23.2401 24.3334 20.6667V11.3334C24.3334 8.76008 23.2401 7.66675 20.6667 7.66675H11.3334Z" fill="#121212"/>
<path id="Vector_2" d="M21.3334 3.66675H10.6667C10.1201 3.66675 9.66675 3.21341 9.66675 2.66675C9.66675 2.12008 10.1201 1.66675 10.6667 1.66675H21.3334C21.8801 1.66675 22.3334 2.12008 22.3334 2.66675C22.3334 3.21341 21.8801 3.66675 21.3334 3.66675Z" fill="#121212"/>
<path id="Vector_3" d="M21.3334 30.3333H10.6667C10.1201 30.3333 9.66675 29.8799 9.66675 29.3333C9.66675 28.7866 10.1201 28.3333 10.6667 28.3333H21.3334C21.8801 28.3333 22.3334 28.7866 22.3334 29.3333C22.3334 29.8799 21.8801 30.3333 21.3334 30.3333Z" fill="#121212"/>
<path id="Vector_4" d="M19.3333 17.6667H15.3333C14.7866 17.6667 14.3333 17.2134 14.3333 16.6667V12.6667C14.3333 12.1201 14.7866 11.6667 15.3333 11.6667C15.8799 11.6667 16.3333 12.1201 16.3333 12.6667V15.6667H19.3333C19.8799 15.6667 20.3333 16.1201 20.3333 16.6667C20.3333 17.2134 19.8799 17.6667 19.3333 17.6667Z" fill="#121212"/>
</g>
</g>
</svg>
